<?xml version="1.0" encoding="utf-8"?>
<!-- Generator: Adobe Illustrator 27.7.0, SVG Export Plug-In . SVG Version: 6.00 Build 0)  -->
<svg version="1.1" id="Capa_1" xmlns="http://www.w3.org/2000/svg" xmlns:xlink="http://www.w3.org/1999/xlink" x="0px" y="0px"
	 viewBox="0 0 48 48" style="enable-background:new 0 0 48 48;" xml:space="preserve">
<style type="text/css">
	.st0{fill:#FFFFFF;}
</style>
<path class="st0" d="M6.1,8.6C6.1,7.2,7.3,6,8.7,6h30.7c1.5,0,2.6,1.2,2.6,2.6v30.8c0,1.4-1.2,2.6-2.6,2.6H8.7
	c-1.5,0-2.6-1.2-2.6-2.6V8.6z M17.2,36.1V19.9h-5.4v16.3H17.2z M14.5,17.7c1.9,0,3.1-1.2,3.1-2.8c0-1.6-1.2-2.8-3-2.8
	s-3.1,1.2-3.1,2.8C11.5,16.4,12.7,17.7,14.5,17.7L14.5,17.7z M25.6,36.1v-9.1c0-0.5,0-1,0.2-1.3c0.4-1,1.3-2,2.8-2
	c2,0,2.7,1.5,2.7,3.7v8.7h5.4v-9.3c0-5-2.7-7.3-6.2-7.3c-2.9,0-4.2,1.6-4.9,2.7v0.1h0c0,0,0,0,0-0.1v-2.3h-5.4
	c0.1,1.5,0,16.3,0,16.3H25.6z"/>
</svg>
